<svg width="18" height="14" viewBox="0 0 18 14" fill="none" xmlns="http://www.w3.org/2000/svg">
<path d="M0.75 1.5C0.75 1.25688 0.846577 1.02372 1.01849 0.851814C1.19039 0.679906 1.42355 0.583328 1.66667 0.583328H16.3333C16.5764 0.583328 16.8096 0.679906 16.9815 0.851814C17.1534 1.02372 17.25 1.25688 17.25 1.5C17.25 1.74311 17.1534 1.97627 16.9815 2.14818C16.8096 2.32008 16.5764 2.41666 16.3333 2.41666H1.66667C1.42355 2.41666 1.19039 2.32008 1.01849 2.14818C0.846577 1.97627 0.75 1.74311 0.75 1.5ZM16.3333 6.08333H1.66667C1.42355 6.08333 1.19039 6.17991 1.01849 6.35181C0.846577 6.52372 0.75 6.75688 0.75 7C0.75 7.24311 0.846577 7.47627 1.01849 7.64818C1.19039 7.82009 1.42355 7.91666 1.66667 7.91666H16.3333C16.5764 7.91666 16.8096 7.82009 16.9815 7.64818C17.1534 7.47627 17.25 7.24311 17.25 7C17.25 6.75688 17.1534 6.52372 16.9815 6.35181C16.8096 6.17991 16.5764 6.08333 16.3333 6.08333ZM16.3333 11.5833H1.66667C1.42355 11.5833 1.19039 11.6799 1.01849 11.8518C0.846577 12.0237 0.75 12.2569 0.75 12.5C0.75 12.7431 0.846577 12.9763 1.01849 13.1482C1.19039 13.3201 1.42355 13.4167 1.66667 13.4167H16.3333C16.5764 13.4167 16.8096 13.3201 16.9815 13.1482C17.1534 12.9763 17.25 12.7431 17.25 12.5C17.25 12.2569 17.1534 12.0237 16.9815 11.8518C16.8096 11.6799 16.5764 11.5833 16.3333 11.5833Z" fill="#6C30EB"/>
</svg>
